<?xml version="1.0" encoding="utf-8"?>
<!-- Generator: Adobe Illustrator 26.5.0, SVG Export Plug-In . SVG Version: 6.00 Build 0)  -->
<svg version="1.1" id="Capa_1" xmlns="http://www.w3.org/2000/svg" xmlns:xlink="http://www.w3.org/1999/xlink" x="0px" y="0px"
	 viewBox="0 0 287 107.5" style="enable-background:new 0 0 287 107.5;" xml:space="preserve">
<style type="text/css">
	.st0{fill:#F4DF49;}
</style>
<g>
	<path d="M27.65,9.43v27.01h0.3c1.94-2.81,4.07-4.87,6.37-6.17c2.31-1.31,5.17-1.96,8.58-1.96c5.29,0,9.57,1.79,12.85,5.37
		c3.28,3.58,4.92,8.22,4.92,13.9v33.63H47.03V49.58c0-2.81-0.79-5.09-2.36-6.83c-1.57-1.74-3.76-2.61-6.58-2.61
		c-3.01,0-5.51,1.1-7.48,3.31c-1.97,2.21-2.96,5.05-2.96,8.53v29.21H14V9.43H27.65z"/>
	<path d="M69.21,98.07V87.33h4.82c5.09,0,7.63-2.34,7.63-7.03c0-2.27-1.3-6.93-3.92-13.95L63.89,29.71h14.36l7.63,23.19l3.31,11.24
		h0.2c0.94-4.35,1.94-8.1,3.01-11.24l7.23-23.19h13.75L95.41,82.51c-2.01,5.89-4.27,9.96-6.78,12.2c-2.51,2.24-6.31,3.36-11.39,3.36
		H69.21z"/>
	<path d="M118,98.07V29.71h13.15v6.43h0.3c3.81-5.22,8.87-7.83,15.16-7.83c6.76,0,12.18,2.51,16.26,7.53
		c4.08,5.02,6.12,11.58,6.12,19.68c0,8.3-2.04,14.91-6.12,19.83c-4.08,4.92-9.47,7.38-16.16,7.38c-6.69,0-11.65-2.44-14.86-7.33
		h-0.2v22.69H118z M143.8,71.37c3.48,0,6.24-1.37,8.28-4.12c2.04-2.74,3.06-6.53,3.06-11.34c0-5.15-0.97-9.2-2.91-12.15
		c-1.94-2.94-4.92-4.42-8.94-4.42c-4.08,0-7.09,1.52-9.03,4.57c-1.94,3.05-2.91,7.04-2.91,12c0,4.75,1.07,8.52,3.21,11.29
		C136.71,69.98,139.79,71.37,143.8,71.37z"/>
	<path d="M199.52,82.71c-8.3,0-14.83-2.56-19.58-7.68c-4.75-5.12-7.13-11.66-7.13-19.63c0-7.7,2.38-14.14,7.13-19.33
		c4.75-5.19,10.84-7.78,18.27-7.78c8.1,0,14.36,2.81,18.77,8.43c4.42,5.62,6.63,13.15,6.63,22.59h-37.34
		c0.53,4.08,1.91,7.25,4.12,9.49c2.21,2.24,5.22,3.36,9.04,3.36c5.02,0,8.33-2.11,9.94-6.32h13.45c-1,4.82-3.55,8.83-7.63,12.05
		C211.1,81.11,205.88,82.71,199.52,82.71z M198.41,38.84c-6.62,0-10.61,3.68-11.95,11.04h22.89c-0.2-3.28-1.31-5.94-3.31-7.98
		C204.04,39.86,201.49,38.84,198.41,38.84z"/>
	<path d="M243.09,29.71v8.23h0.3c1.61-3.01,3.38-5.24,5.32-6.68c1.94-1.44,4.38-2.16,7.33-2.16c1.41,0,2.48,0.13,3.21,0.4v11.95
		h-0.3c-4.62-0.47-8.33,0.54-11.14,3.01c-2.81,2.48-4.22,6.36-4.22,11.65v25.1h-13.65v-51.5H243.09z"/>
	<path class="st0" d="M258.35,81.21V66.65H273v14.56H258.35z"/>
</g>
</svg>
